{
  "asset": {
    "version": "2.0",
    "generator": "KosmosRenderer procedural showcase sample"
  },
  "scene": 0,
  "scenes": [
    {
      "name": "KosmosShowcaseScene",
      "nodes": [
        0
      ]
    }
  ],
  "nodes": [
    {
      "name": "ShowcaseRoot",
      "children": [
        1,
        2,
        3,
        4,
        5,
        6,
        7,
        8,
        9,
        10,
        11,
        12,
        13,
        14,
        15,
        16
      ]
    },
    {
      "name": "MatteFloor",
      "mesh": 0,
      "translation": [
        0,
        -1.08,
        0.05
      ],
      "scale": [
        4.8,
        0.06,
        3.8
      ]
    },
    {
      "name": "BackWall",
      "mesh": 1,
      "translation": [
        0,
        0.58,
        -2.05
      ],
      "scale": [
        4.8,
        1.7,
        0.07
      ]
    },
    {
      "name": "LeftSideWall",
      "mesh": 1,
      "translation": [
        -2.38,
        0.3,
        -0.25
      ],
      "scale": [
        0.06,
        1.35,
        1.85
      ]
    },
    {
      "name": "CenterPlinth",
      "mesh": 2,
      "translation": [
        0,
        -0.62,
        -0.25
      ],
      "scale": [
        1.08,
        0.42,
        0.82
      ]
    },
    {
      "name": "HeroBronzeSphere",
      "mesh": 6,
      "translation": [
        0,
        0.08,
        -0.25
      ],
      "scale": [
        0.52,
        0.52,
        0.52
      ]
    },
    {
      "name": "LeftColumn",
      "mesh": 9,
      "translation": [
        -1.38,
        -0.42,
        0.55
      ],
      "scale": [
        0.18,
        0.64,
        0.18
      ]
    },
    {
      "name": "RightColumn",
      "mesh": 10,
      "translation": [
        1.38,
        -0.42,
        0.55
      ],
      "scale": [
        0.18,
        0.64,
        0.18
      ]
    },
    {
      "name": "BlueMaterialSphere",
      "mesh": 7,
      "translation": [
        -1.25,
        -0.38,
        -0.58
      ],
      "scale": [
        0.28,
        0.28,
        0.28
      ]
    },
    {
      "name": "ChromeMaterialSphere",
      "mesh": 8,
      "translation": [
        1.25,
        -0.38,
        -0.58
      ],
      "scale": [
        0.28,
        0.28,
        0.28
      ]
    },
    {
      "name": "IvoryMaterialCube",
      "mesh": 4,
      "translation": [
        1.05,
        -0.58,
        0.82
      ],
      "rotation": [
        0,
        -0.20791169081775931,
        0,
        0.9781476007338057
      ],
      "scale": [
        0.3,
        0.3,
        0.3
      ]
    },
    {
      "name": "BronzeTiltedCube",
      "mesh": 3,
      "translation": [
        -1.05,
        -0.58,
        0.82
      ],
      "rotation": [
        0,
        0.24192189559966773,
        0,
        0.9702957262759965
      ],
      "scale": [
        0.3,
        0.3,
        0.3
      ]
    },
    {
      "name": "KosmosLogoVertical",
      "mesh": 5,
      "translation": [
        -1.52,
        0.58,
        -1.93
      ],
      "scale": [
        0.045,
        0.62,
        0.035
      ]
    },
    {
      "name": "KosmosLogoUpperDiagonal",
      "mesh": 5,
      "translation": [
        -1.27,
        0.75,
        -1.92
      ],
      "rotation": [
        0,
        0,
        -0.32556815445715664,
        0.9455185755993168
      ],
      "scale": [
        0.045,
        0.48,
        0.035
      ]
    },
    {
      "name": "KosmosLogoLowerDiagonal",
      "mesh": 5,
      "translation": [
        -1.27,
        0.39,
        -1.92
      ],
      "rotation": [
        0,
        0,
        0.32556815445715664,
        0.9455185755993168
      ],
      "scale": [
        0.045,
        0.48,
        0.035
      ]
    },
    {
      "name": "ShadowCasterBar",
      "mesh": 2,
      "translation": [
        0.95,
        0.3,
        -0.15
      ],
      "rotation": [
        0,
        0,
        0.10452846326765346,
        0.9945218953682733
      ],
      "scale": [
        0.1,
        0.72,
        0.1
      ]
    },
    {
      "name": "ThinAccentStep",
      "mesh": 5,
      "translation": [
        0,
        -0.18,
        0.72
      ],
      "scale": [
        0.88,
        0.035,
        0.1
      ]
    }
  ],
  "meshes": [
    {
      "name": "Cube_Floor",
      "primitives": [
        {
          "attributes": {
            "POSITION": 0,
            "NORMAL": 1,
            "TEXCOORD_0": 2
          },
          "indices": 3,
          "material": 0
        }
      ]
    },
    {
      "name": "Cube_Wall",
      "primitives": [
        {
          "attributes": {
            "POSITION": 0,
            "NORMAL": 1,
            "TEXCOORD_0": 2
          },
          "indices": 3,
          "material": 1
        }
      ]
    },
    {
      "name": "Cube_DarkMetal",
      "primitives": [
        {
          "attributes": {
            "POSITION": 0,
            "NORMAL": 1,
            "TEXCOORD_0": 2
          },
          "indices": 3,
          "material": 2
        }
      ]
    },
    {
      "name": "Cube_Bronze",
      "primitives": [
        {
          "attributes": {
            "POSITION": 0,
            "NORMAL": 1,
            "TEXCOORD_0": 2
          },
          "indices": 3,
          "material": 3
        }
      ]
    },
    {
      "name": "Cube_Ceramic",
      "primitives": [
        {
          "attributes": {
            "POSITION": 0,
            "NORMAL": 1,
            "TEXCOORD_0": 2
          },
          "indices": 3,
          "material": 5
        }
      ]
    },
    {
      "name": "Cube_Accent",
      "primitives": [
        {
          "attributes": {
            "POSITION": 0,
            "NORMAL": 1,
            "TEXCOORD_0": 2
          },
          "indices": 3,
          "material": 6
        }
      ]
    },
    {
      "name": "Sphere_Bronze",
      "primitives": [
        {
          "attributes": {
            "POSITION": 4,
            "NORMAL": 5,
            "TEXCOORD_0": 6
          },
          "indices": 7,
          "material": 3
        }
      ]
    },
    {
      "name": "Sphere_BlueCeramic",
      "primitives": [
        {
          "attributes": {
            "POSITION": 4,
            "NORMAL": 5,
            "TEXCOORD_0": 6
          },
          "indices": 7,
          "material": 4
        }
      ]
    },
    {
      "name": "Sphere_Chrome",
      "primitives": [
        {
          "attributes": {
            "POSITION": 4,
            "NORMAL": 5,
            "TEXCOORD_0": 6
          },
          "indices": 7,
          "material": 7
        }
      ]
    },
    {
      "name": "Cylinder_DarkMetal",
      "primitives": [
        {
          "attributes": {
            "POSITION": 8,
            "NORMAL": 9,
            "TEXCOORD_0": 10
          },
          "indices": 11,
          "material": 2
        }
      ]
    },
    {
      "name": "Cylinder_Bronze",
      "primitives": [
        {
          "attributes": {
            "POSITION": 8,
            "NORMAL": 9,
            "TEXCOORD_0": 10
          },
          "indices": 11,
          "material": 3
        }
      ]
    }
  ],
  "materials": [
    {
      "name": "MatteGraphiteFloor",
      "pbrMetallicRoughness": {
        "baseColorFactor": [
          0.2,
          0.23,
          0.27,
          1
        ],
        "metallicFactor": 0,
        "roughnessFactor": 0.88
      }
    },
    {
      "name": "CoolStudioWall",
      "pbrMetallicRoughness": {
        "baseColorFactor": [
          0.55,
          0.6,
          0.64,
          1
        ],
        "metallicFactor": 0,
        "roughnessFactor": 0.72
      }
    },
    {
      "name": "DarkBrushedMetal",
      "pbrMetallicRoughness": {
        "baseColorFactor": [
          0.35,
          0.38,
          0.41,
          1
        ],
        "metallicFactor": 0.85,
        "roughnessFactor": 0.3
      }
    },
    {
      "name": "WarmBronzeHero",
      "pbrMetallicRoughness": {
        "baseColorFactor": [
          0.95,
          0.58,
          0.25,
          1
        ],
        "metallicFactor": 1,
        "roughnessFactor": 0.22
      }
    },
    {
      "name": "BlueRoughCeramic",
      "pbrMetallicRoughness": {
        "baseColorFactor": [
          0.16,
          0.38,
          0.84,
          1
        ],
        "metallicFactor": 0,
        "roughnessFactor": 0.58
      }
    },
    {
      "name": "IvoryMatteCeramic",
      "pbrMetallicRoughness": {
        "baseColorFactor": [
          0.88,
          0.82,
          0.7,
          1
        ],
        "metallicFactor": 0,
        "roughnessFactor": 0.78
      }
    },
    {
      "name": "KosmosAccentRed",
      "pbrMetallicRoughness": {
        "baseColorFactor": [
          0.86,
          0.08,
          0.06,
          1
        ],
        "metallicFactor": 0,
        "roughnessFactor": 0.42
      }
    },
    {
      "name": "SoftChrome",
      "pbrMetallicRoughness": {
        "baseColorFactor": [
          0.75,
          0.8,
          0.86,
          1
        ],
        "metallicFactor": 1,
        "roughnessFactor": 0.12
      }
    }
  ],
  "buffers": [
    {
      "uri": "data:application/octet-stream;base64,",
      "byteLength": 29928
    }
  ],
  "bufferViews": [
    {
      "buffer": 0,
      "byteOffset": 0,
      "byteLength": 288,
      "target": 34962
    },
    {
      "buffer": 0,
      "byteOffset": 288,
      "byteLength": 288,
      "target": 34962
    },
    {
      "buffer": 0,
      "byteOffset": 576,
      "byteLength": 192,
      "target": 34962
    },
    {
      "buffer": 0,
      "byteOffset": 768,
      "byteLength": 72,
      "target": 34963
    },
    {
      "buffer": 0,
      "byteOffset": 840,
      "byteLength": 6732,
      "target": 34962
    },
    {
      "buffer": 0,
      "byteOffset": 7572,
      "byteLength": 6732,
      "target": 34962
    },
    {
      "buffer": 0,
      "byteOffset": 14304,
      "byteLength": 4488,
      "target": 34962
    },
    {
      "buffer": 0,
      "byteOffset": 18792,
      "byteLength": 6144,
      "target": 34963
    },
    {
      "buffer": 0,
      "byteOffset": 24936,
      "byteLength": 1584,
      "target": 34962
    },
    {
      "buffer": 0,
      "byteOffset": 26520,
      "byteLength": 1584,
      "target": 34962
    },
    {
      "buffer": 0,
      "byteOffset": 28104,
      "byteLength": 1056,
      "target": 34962
    },
    {
      "buffer": 0,
      "byteOffset": 29160,
      "byteLength": 768,
      "target": 34963
    }
  ],
  "accessors": [
    {
      "bufferView": 0,
      "componentType": 5126,
      "count": 24,
      "type": "VEC3",
      "min": [
        -1,
        -1,
        -1
      ],
      "max": [
        1,
        1,
        1
      ]
    },
    {
      "bufferView": 1,
      "componentType": 5126,
      "count": 24,
      "type": "VEC3"
    },
    {
      "bufferView": 2,
      "componentType": 5126,
      "count": 24,
      "type": "VEC2"
    },
    {
      "bufferView": 3,
      "componentType": 5123,
      "count": 36,
      "type": "SCALAR"
    },
    {
      "bufferView": 4,
      "componentType": 5126,
      "count": 561,
      "type": "VEC3",
      "min": [
        -1,
        -1,
        -1
      ],
      "max": [
        1,
        1,
        1
      ]
    },
    {
      "bufferView": 5,
      "componentType": 5126,
      "count": 561,
      "type": "VEC3"
    },
    {
      "bufferView": 6,
      "componentType": 5126,
      "count": 561,
      "type": "VEC2"
    },
    {
      "bufferView": 7,
      "componentType": 5123,
      "count": 3072,
      "type": "SCALAR"
    },
    {
      "bufferView": 8,
      "componentType": 5126,
      "count": 132,
      "type": "VEC3",
      "min": [
        -1,
        -1,
        -1
      ],
      "max": [
        1,
        1,
        1
      ]
    },
    {
      "bufferView": 9,
      "componentType": 5126,
      "count": 132,
      "type": "VEC3"
    },
    {
      "bufferView": 10,
      "componentType": 5126,
      "count": 132,
      "type": "VEC2"
    },
    {
      "bufferView": 11,
      "componentType": 5123,
      "count": 384,
      "type": "SCALAR"
    }
  ]
}
